# xmcd
#
# Track frame offsets:
#	150
#	14100
#	29793
#	45190
#	60315
#	79715
#	96255
#	112980
#	125240
#	141058
#	157660
#	178750
#
# Disc length: 3109 seconds
# Revision: 7
# Processed by: cddbd v1.5.2PL0 Copyright (c) Steve Scherf et al.
# Submitted via: dBpowerAMP V12.0
#
DISCID=990c230c
DTITLE=The Chieftains - Another Country
DYEAR=1992
DGENRE=Celtic
TTITLE0=Happy to Meet
TTITLE1=I Can't Stop Loving You
TTITLE2=Wabash Cannonball
TTITLE3=Heartbreak Hotel
TTITLE4=Goodnight Irene
TTITLE5=Cúnla
TTITLE6=Nobody's Darlin' But Mine
TTITLE7=Cotton-Eyed Joe
TTITLE8=Tahitian Skies
TTITLE9=Killybegs
TTITLE10=Paddy's Green Shamrock Shore
TTITLE11=Finale
EXTD=
EXTT0=
EXTT1=
EXTT2=
EXTT3=
EXTT4=
EXTT5=
EXTT6=
EXTT7=
EXTT8=
EXTT9=
EXTT10=
EXTT11=
PLAYORDER=
